<?xml version="1.0" encoding="utf-8"?><svg version="1.1" id="Layer_1" xmlns="http://www.w3.org/2000/svg" xmlns:xlink="http://www.w3.org/1999/xlink" x="0px" y="0px" viewBox="0 0 122.88 100.39" style="enable-background:new 0 0 122.88 100.39" xml:space="preserve"><g><path d="M119.66,94.98l-1.33-1.53L112,99.78l-0.01-0.01c-0.71,0.71-1.86,0.72-2.57,0.02l-6.45-6.27l-6.32,6.07 c-0.69,0.71-1.83,0.75-2.56,0.07l-6.7-6.19l-6.08,6.26c-0.04,0.04-0.07,0.08-0.11,0.12c-0.72,0.72-1.88,0.72-2.6,0l-6.38-6.38 l-6.58,6.27l0,0c-0.72,0.68-1.86,0.67-2.56-0.04l-6.26-6.32l-1.3,1.5c-0.33,0.45-0.87,0.74-1.48,0.74c-1.02,0-1.84-0.83-1.84-1.84 V69.26c0.42,0.07,0.85,0.11,1.28,0.11c0.81,0.01,1.62-0.09,2.41-0.31v20c0.65-0.34,1.46-0.27,2.05,0.24 c0.04,0.03,0.07,0.06,0.1,0.1l0,0l6.38,6.45l6.57-6.26c0.73-0.69,1.86-0.67,2.56,0.03l0.01-0.01l6.33,6.33l6.13-6.31 c0.7-0.71,1.83-0.74,2.56-0.07l0,0l6.75,6.23l6.4-6.14c0.72-0.69,1.86-0.68,2.56,0.02l6.4,6.23l6.44-6.44 c0.55-0.56,1.4-0.68,2.08-0.36l0,0V39.2H85.27c0.12-0.59,0.17-1.19,0.17-1.79c-0.01-0.63-0.09-1.27-0.23-1.89h35.84 c1.02,0,1.84,0.82,1.84,1.84v56.42h-0.01c0,0.51-0.21,1.02-0.64,1.39C121.48,95.83,120.32,95.75,119.66,94.98L119.66,94.98 L119.66,94.98z M70.13,78.81c-0.82,0-1.49-0.67-1.49-1.49c0-0.82,0.67-1.49,1.49-1.49h13.35c0.82,0,1.49,0.67,1.49,1.49 c0,0.82-0.67,1.49-1.49,1.49H70.13L70.13,78.81z M70.13,60.77c-0.82,0-1.49-0.67-1.49-1.49c0-0.82,0.67-1.49,1.49-1.49h39.59 c0.82,0,1.49,0.67,1.49,1.49c0,0.82-0.67,1.49-1.49,1.49H70.13L70.13,60.77z M70.13,69.84c-0.82,0-1.49-0.67-1.49-1.49 c0-0.82,0.67-1.49,1.49-1.49h33.85c0.82,0,1.49,0.67,1.49,1.49c0,0.82-0.67,1.49-1.49,1.49H70.13L70.13,69.84z M62.7,17.11 L62.7,17.11c1.99,1.99,2.03,5.2,0.09,7.14l-1.05,1.05l8.43,8.28L48.86,54.12l-8.21-8.5L8.66,77.61c-1.94,1.94-5.15,1.9-7.14-0.09 l0,0c-1.99-1.99-2.03-5.2-0.09-7.14l32.11-32.11l-6.43-6.68l20.14-20.54l7.21,7.07l1.11-1.11C57.5,15.09,60.71,15.13,62.7,17.11 L62.7,17.11L62.7,17.11z M46.38,1.21L46.38,1.21c1.58,1.58,1.61,4.14,0.07,5.68l-23.5,23.5c-1.54,1.54-4.1,1.51-5.68-0.07l0,0 c-1.58-1.58-1.61-4.14-0.07-5.68l23.5-23.5C42.24-0.41,44.8-0.37,46.38,1.21L46.38,1.21L46.38,1.21z M79.78,34.61L79.78,34.61 c1.58,1.58,1.61,4.14,0.07,5.68l-23.5,23.5c-1.54,1.54-4.1,1.51-5.68-0.07l0,0c-1.58-1.58-1.61-4.14-0.07-5.68l23.5-23.5 C75.65,33,78.2,33.03,79.78,34.61L79.78,34.61L79.78,34.61z"/></g></svg>