<svg xmlns="http://www.w3.org/2000/svg" xmlns:xlink="http://www.w3.org/1999/xlink" width="1200" zoomAndPan="magnify" viewBox="0 0 900 899.99999" height="1200" preserveAspectRatio="xMidYMid meet" version="1.0"><defs><g/><clipPath id="eb3a4bb88d"><path d="M 56 128.710938 L 844 128.710938 L 844 771.351562 L 56 771.351562 Z M 56 128.710938 " clip-rule="nonzero"/></clipPath><clipPath id="3abba0bb11"><rect x="0" width="151" y="0" height="327"/></clipPath></defs><g clip-path="url(#eb3a4bb88d)"><path fill="#ffffff" d="M 822.644531 736.714844 L 814.128906 726.917969 L 773.605469 767.445312 L 773.542969 767.382812 C 768.996094 771.929688 761.636719 771.992188 757.089844 767.511719 L 715.796875 727.367188 L 675.339844 766.230469 C 670.921875 770.777344 663.625 771.03125 658.949219 766.679688 L 616.058594 727.046875 L 577.132812 767.125 C 576.878906 767.382812 576.6875 767.636719 576.429688 767.894531 C 571.820312 772.503906 564.394531 772.503906 559.785156 767.894531 L 518.941406 727.046875 L 476.816406 767.191406 C 472.207031 771.542969 464.910156 771.480469 460.429688 766.933594 L 420.355469 726.46875 L 412.03125 736.074219 C 409.917969 738.953125 406.460938 740.8125 402.554688 740.8125 C 396.027344 740.8125 390.777344 735.496094 390.777344 729.03125 L 390.777344 572.039062 C 393.464844 572.488281 396.21875 572.746094 398.972656 572.746094 C 404.15625 572.808594 409.34375 572.167969 414.398438 570.761719 L 414.398438 698.8125 C 418.5625 696.632812 423.746094 697.082031 427.523438 700.347656 C 427.78125 700.539062 427.972656 700.730469 428.164062 700.988281 L 469.007812 742.285156 L 511.066406 702.203125 C 515.742188 697.785156 522.976562 697.914062 527.457031 702.394531 L 527.519531 702.332031 L 568.042969 742.859375 L 607.289062 702.460938 C 611.769531 697.914062 619.003906 697.722656 623.675781 702.011719 L 666.886719 741.898438 L 707.859375 702.589844 C 712.46875 698.171875 719.765625 698.234375 724.25 702.714844 L 765.21875 742.605469 L 806.449219 701.371094 C 809.96875 697.785156 815.410156 697.019531 819.765625 699.066406 L 819.765625 379.582031 L 602.484375 379.582031 C 603.253906 375.804688 603.574219 371.960938 603.574219 368.121094 C 603.511719 364.085938 602.996094 359.988281 602.101562 356.019531 L 831.542969 356.019531 C 838.074219 356.019531 843.324219 361.269531 843.324219 367.800781 L 843.324219 729.03125 L 843.257812 729.03125 C 843.257812 732.296875 841.914062 735.5625 839.160156 737.929688 C 834.296875 742.15625 826.871094 741.644531 822.644531 736.714844 Z M 505.5625 633.183594 C 500.3125 633.183594 496.023438 628.894531 496.023438 623.644531 C 496.023438 618.394531 500.3125 614.105469 505.5625 614.105469 L 591.027344 614.105469 C 596.277344 614.105469 600.566406 618.394531 600.566406 623.644531 C 600.566406 628.894531 596.277344 633.183594 591.027344 633.183594 Z M 505.5625 517.683594 C 500.3125 517.683594 496.023438 513.394531 496.023438 508.144531 C 496.023438 502.894531 500.3125 498.605469 505.5625 498.605469 L 759.011719 498.605469 C 764.261719 498.605469 768.550781 502.894531 768.550781 508.144531 C 768.550781 513.394531 764.261719 517.683594 759.011719 517.683594 Z M 505.5625 575.753906 C 500.3125 575.753906 496.023438 571.464844 496.023438 566.214844 C 496.023438 560.964844 500.3125 556.675781 505.5625 556.675781 L 722.265625 556.675781 C 727.515625 556.675781 731.804688 560.964844 731.804688 566.214844 C 731.804688 571.464844 727.515625 575.753906 722.265625 575.753906 Z M 457.996094 238.148438 C 470.734375 250.890625 470.992188 271.441406 458.574219 283.863281 L 451.851562 290.585938 L 505.816406 343.597656 L 369.394531 475.105469 L 316.835938 420.683594 L 112.042969 625.503906 C 99.621094 637.921875 79.070312 637.667969 66.332031 624.925781 C 53.59375 612.183594 53.335938 591.632812 65.757812 579.210938 L 271.320312 373.625 L 230.15625 330.859375 L 359.089844 199.351562 L 405.246094 244.617188 L 412.351562 237.507812 C 424.707031 225.214844 445.257812 225.472656 457.996094 238.148438 Z M 353.519531 136.347656 C 363.632812 146.464844 363.824219 162.855469 353.964844 172.714844 L 203.523438 323.175781 C 193.664062 333.035156 177.277344 332.84375 167.160156 322.726562 C 157.046875 312.609375 156.855469 296.21875 166.714844 286.359375 L 317.15625 135.902344 C 327.015625 125.976562 343.402344 126.234375 353.519531 136.347656 Z M 567.339844 350.191406 C 577.453125 360.308594 577.648438 376.699219 567.789062 386.558594 L 417.34375 537.019531 C 407.484375 546.878906 391.097656 546.6875 380.980469 536.570312 C 370.867188 526.453125 370.675781 510.066406 380.535156 500.203125 L 530.976562 349.746094 C 540.898438 339.886719 557.226562 340.078125 567.339844 350.191406 Z M 567.339844 350.191406 " fill-opacity="1" fill-rule="nonzero"/></g><g transform="matrix(1, 0, 0, 1, 213, 474)"><g clip-path="url(#3abba0bb11)"><g fill="#ffffff" fill-opacity="1"><g transform="translate(0.255682, 261.092311)"><g><path d="M 22.703125 0 L 22.703125 -195.53125 L 47.375 -195.53125 L 47.375 -21.78125 L 138.71875 -21.78125 L 138.71875 0 Z M 22.703125 0 "/></g></g></g></g></g></svg>